<?xml version="1.0" standalone="no"?><!DOCTYPE svg PUBLIC "-//W3C//DTD SVG 1.1//EN" "http://www.w3.org/Graphics/SVG/1.1/DTD/svg11.dtd">
<svg t="1706011592175" class="icon" viewBox="0 0 1024 1024" version="1.1" xmlns="http://www.w3.org/2000/svg" p-id="5404"
     width="200" height="200"><path d="M931.800836 209.547316h-212.212455c-24.967537 0-55.073742-20.165641-64.573019-32.242962q-16.734056-21.29789-33.491339-42.572554a74.321972 74.321972 0 0 0-58.487908-29.833304H460.634373c-30.744909 0-47.240903 14.829556-61.153048 32.579733-10.079917 12.832153-21.744983 27.493323-31.74361 40.244186-9.162506 11.57797-39.663546 31.830707-63.655608 31.830707h-211.933748a52.675698 52.675698 0 0 1 0-105.148171h175.55082s46.073816-7.914129 65.653011-32.411347c11.084425-13.830854 23.498517-30.158463 33.996495-43.658352 4.830928-6.247691 35.744223-28.329445 57.320821-28.329446h174.134058c24.746894 0 54.406006 23.161746 59.567899 29.827498 10.335399 13.250214 23.167552 28.16106 32.997794 42.322879 16.257931 23.579807 64.903985 32.242962 64.903985 32.242962h175.527594a52.675698 52.675698 0 0 1 0 105.148171z m-296.364669 604.226019a51.044098 51.044098 0 0 1-49.406692-52.489893V367.18538a49.505401 49.505401 0 1 1 98.813384 0v394.098062a51.044098 51.044098 0 0 1-49.406692 52.489893zM437.884882 367.18538v394.098062a49.499595 49.499595 0 1 1-98.813384 0V367.18538a49.505401 49.505401 0 1 1 98.813384 0zM166.185817 288.363445a51.044098 51.044098 0 0 1 49.406692 52.489892v525.479567a51.096356 51.096356 0 0 0 49.406692 52.571183h493.910148a51.096356 51.096356 0 0 0 49.389273-52.55957v-525.479567a49.499595 49.499595 0 1 1 98.819191 0v551.736126c0 72.580051-55.323418 131.393117-123.478989 131.393118H240.258113c-68.155571 0-123.478989-58.824679-123.478988-131.393118V340.853337a51.044098 51.044098 0 0 1 49.406692-52.489892z" fill="#141414" p-id="5405"></path></svg>